<?xml version="1.0" encoding="iso-8859-1"?>
<!-- Generator: Adobe Illustrator 19.0.0, SVG Export Plug-In . SVG Version: 6.00 Build 0)  -->
<svg version="1.1" id="Capa_1" xmlns="http://www.w3.org/2000/svg" xmlns:xlink="http://www.w3.org/1999/xlink" x="0px" y="0px"
	 viewBox="0 0 511.996 511.996" style="enable-background:new 0 0 511.996 511.996;" xml:space="preserve">
<path style="fill:#77B255;" d="M329.313,348.453l-81.107-81.107l-81.121-81.121c0,0,6.654,163.558-163.544,206.101
	c0,0,15.107,36.37,49.211,70.474c34.09,34.104,70.46,49.196,70.46,49.196C165.769,341.799,329.313,348.453,329.313,348.453"/>
<g>
	<path style="fill:#5C913B;" d="M195.016,235.43c-10.632,53.188-74.467,138.288-74.467,138.288s85.098-85.098,127.655-127.655
		C290.747,203.52,195.016,235.43,195.016,235.43"/>
	<path style="fill:#5C913B;" d="M375.849,331.166c0,0-159.551,10.632-255.297,85.099c117.01-117.01,170.198-127.641,170.198-127.641
		L375.849,331.166z"/>
</g>
<path style="fill:#3E721D;" d="M433.772,405.043c9.754,0.658,19.714-2.603,27.172-10.062c13.718-13.703,13.718-35.932,0-49.634
	c-1.243-1.243-2.632-2.252-4.007-3.275c6.011-1.477,11.729-4.445,16.423-9.125c4.549-4.549,7.429-10.062,8.965-15.852
	c5.792-1.536,11.305-4.431,15.852-8.979c13.703-13.703,13.703-35.932,0-49.635c13.703-13.703,13.703-35.932,0-49.635
	c-5.148-5.148-11.495-8.365-18.149-9.652c6.288-13.06,4.168-29.16-6.669-39.998c-4.695-4.695-10.412-7.649-16.423-9.125
	c1.374-1.024,2.764-2.032,4.007-3.275c13.718-13.718,13.718-35.932,0-49.65c-10.837-10.822-26.924-12.958-39.998-6.669
	c-1.272-6.654-4.489-13.001-9.637-18.149c-7.458-7.458-17.418-10.705-27.172-10.047c0.643-9.754-2.603-19.728-10.062-27.186
	c-13.703-13.703-35.932-13.703-49.634,0c-10.837-10.822-26.938-12.958-39.998-6.669c-1.287-6.654-4.504-13.001-9.652-18.149
	c-13.703-13.703-35.932-13.703-49.635,0c-5.148,5.148-8.365,11.495-9.637,18.149c-13.074-6.288-29.176-4.153-39.998,6.669
	c-4.695,4.695-7.663,10.412-9.14,16.423c-1.024-1.374-2.032-2.764-3.275-4.007c-13.703-13.703-35.932-13.703-49.635,0
	c-10.838,10.833-12.973,26.933-6.684,39.993c-6.639,1.287-12.987,4.489-18.134,9.637c-13.718,13.718-13.718,35.932,0,49.65
	c4.68,4.695,10.412,7.649,16.408,9.125c-1.374,1.024-2.764,2.032-4.007,3.275c-13.703,13.718-13.703,35.932,0,49.65
	c5.148,5.148,11.495,8.351,18.149,9.637c-6.288,13.06-4.153,29.16,6.669,39.998c10.837,10.837,26.938,12.972,39.998,6.669
	c1.287,6.654,4.505,13.001,9.652,18.149c4.695,4.695,10.412,7.663,16.408,9.14c-1.374,1.024-2.75,2.018-4.007,3.275
	c-13.703,13.703-13.703,35.932,0,49.635c10.837,10.837,26.938,12.972,39.998,6.669c1.287,6.654,4.504,13.001,9.652,18.149
	c9.286,9.302,22.477,12.138,34.294,8.819c0.936,1.228,1.813,2.471,2.925,3.598c7.458,7.458,17.432,10.705,27.186,10.047
	c-0.658,9.754,2.588,19.728,10.047,27.186c13.703,13.703,35.932,13.703,49.65,0c1.243-1.258,2.252-2.632,3.261-4.007
	c1.491,5.996,4.445,11.715,9.14,16.408c13.703,13.718,35.932,13.718,49.634,0C431.168,424.757,434.43,414.798,433.772,405.043"/>
<g>
	<path style="fill:#5C913B;" d="M168.42,91.828c-8.819,8.819-23.106,8.819-31.91,0c-8.819-8.819-8.819-23.106,0-31.91
		c8.804-8.819,23.091-8.819,31.91,0C177.238,68.722,177.238,83.01,168.42,91.828"/>
	<path style="fill:#5C913B;" d="M232.247,91.828c-8.819,8.819-23.106,8.819-31.91,0c-8.819-8.819-8.819-23.106,0-31.91
		c8.804-8.819,23.091-8.819,31.91,0C241.065,68.722,241.065,83.01,232.247,91.828"/>
	<path style="fill:#5C913B;" d="M274.8,49.28c-8.819,8.819-23.106,8.819-31.91,0c-8.819-8.819-8.819-23.106,0-31.91
		c8.804-8.819,23.091-8.819,31.91,0C283.619,26.173,283.619,40.462,274.8,49.28"/>
	<path style="fill:#5C913B;" d="M327.981,81.191c-8.819,8.819-23.106,8.819-31.91,0c-8.819-8.819-8.819-23.106,0-31.91
		c8.804-8.819,23.091-8.819,31.91,0C336.8,58.085,336.8,72.373,327.981,81.191"/>
	<path style="fill:#5C913B;" d="M370.531,81.191c-8.819,8.819-23.106,8.819-31.91,0c-8.819-8.819-8.819-23.106,0-31.91
		c8.804-8.819,23.091-8.819,31.91,0C379.35,58.085,379.35,72.373,370.531,81.191"/>
	<path style="fill:#5C913B;" d="M381.169,113.102c-8.819,8.819-23.106,8.819-31.91,0c-8.819-8.819-8.819-23.106,0-31.91
		c8.804-8.819,23.091-8.819,31.91,0C389.988,89.996,389.988,104.283,381.169,113.102"/>
	<path style="fill:#5C913B;" d="M413.08,123.739c-8.819,8.819-23.106,8.819-31.91,0c-8.819-8.819-8.819-23.106,0-31.91
		c8.804-8.819,23.091-8.819,31.91,0C421.898,100.633,421.898,114.921,413.08,123.739"/>
	<path style="fill:#5C913B;" d="M455.628,145.011c-8.819,8.819-23.106,8.819-31.91,0c-8.819-8.819-8.819-23.106,0-31.91
		c8.804-8.819,23.091-8.819,31.91,0C464.447,121.905,464.447,136.192,455.628,145.011"/>
	<path style="fill:#5C913B;" d="M444.992,176.925c-8.819,8.819-23.106,8.819-31.91,0c-8.819-8.819-8.819-23.106,0-31.91
		c8.804-8.819,23.091-8.819,31.91,0C453.81,153.819,453.81,168.107,444.992,176.925"/>
	<path style="fill:#5C913B;" d="M476.901,230.112c-8.819,8.819-23.106,8.819-31.91,0c-8.819-8.819-8.819-23.106,0-31.91
		c8.804-8.819,23.091-8.819,31.91,0C485.72,207.006,485.72,221.294,476.901,230.112"/>
	<path style="fill:#5C913B;" d="M487.539,283.297c-8.819,8.819-23.106,8.819-31.91,0c-8.819-8.819-8.819-23.106,0-31.91
		c8.804-8.819,23.091-8.819,31.91,0C496.357,260.191,496.357,274.48,487.539,283.297"/>
	<path style="fill:#5C913B;" d="M402.444,176.925c-8.819,8.819-23.106,8.819-31.91,0c-8.819-8.819-8.819-23.106,0-31.91
		c8.804-8.819,23.091-8.819,31.91,0C411.263,153.819,411.263,168.107,402.444,176.925"/>
	<path style="fill:#5C913B;" d="M359.894,134.372c-8.819,8.819-23.106,8.819-31.91,0c-8.819-8.819-8.819-23.106,0-31.91
		c8.804-8.819,23.091-8.819,31.91,0C368.713,111.266,368.713,125.553,359.894,134.372"/>
	<path style="fill:#5C913B;" d="M306.708,102.466c-8.819,8.819-23.106,8.819-31.91,0c-8.819-8.819-8.819-23.106,0-31.91
		c8.804-8.819,23.091-8.819,31.91,0C315.527,79.359,315.527,93.647,306.708,102.466"/>
	<path style="fill:#5C913B;" d="M242.885,123.739c-8.819,8.819-23.106,8.819-31.91,0c-8.819-8.819-8.819-23.106,0-31.91
		c8.804-8.819,23.091-8.819,31.91,0C251.703,100.633,251.703,114.921,242.885,123.739"/>
	<path style="fill:#5C913B;" d="M264.161,102.466c-8.819,8.819-23.106,8.819-31.91,0c-8.819-8.819-8.819-23.106,0-31.91
		c8.804-8.819,23.091-8.819,31.91,0C272.979,79.359,272.979,93.647,264.161,102.466"/>
	<path style="fill:#5C913B;" d="M200.336,145.011c-8.819,8.819-23.106,8.819-31.91,0c-8.819-8.819-8.819-23.106,0-31.91
		c8.804-8.819,23.091-8.819,31.91,0C209.153,121.905,209.153,136.192,200.336,145.011"/>
	<path style="fill:#5C913B;" d="M306.708,166.288c-8.819,8.819-23.106,8.819-31.91,0c-8.819-8.819-8.819-23.106,0-31.91
		c8.804-8.819,23.091-8.819,31.91,0C315.527,143.182,315.527,157.469,306.708,166.288"/>
	<path style="fill:#5C913B;" d="M381.169,240.752c-8.819,8.819-23.106,8.819-31.91,0c-8.819-8.819-8.819-23.106,0-31.91
		c8.804-8.819,23.091-8.819,31.91,0C389.988,217.646,389.988,231.933,381.169,240.752"/>
	<path style="fill:#5C913B;" d="M402.444,304.573c-8.819,8.819-23.106,8.819-31.91,0c-8.819-8.819-8.819-23.106,0-31.91
		c8.804-8.819,23.091-8.819,31.91,0C411.263,281.466,411.263,295.754,402.444,304.573"/>
</g>
<g>
</g>
<g>
</g>
<g>
</g>
<g>
</g>
<g>
</g>
<g>
</g>
<g>
</g>
<g>
</g>
<g>
</g>
<g>
</g>
<g>
</g>
<g>
</g>
<g>
</g>
<g>
</g>
<g>
</g>
</svg>
